<svg id="Capa_1" data-name="Capa 1" xmlns="http://www.w3.org/2000/svg" viewBox="0 0 381.11 527.95"><defs><style>.cls-1{fill:#de7f66;}.cls-2{fill:#91c5ec;}.cls-3{fill:#4e62ab;}.cls-4{fill:#c3e5fa;}.cls-5{fill:#b6d9f4;}.cls-6{fill:#fcc244;}.cls-7{fill:#f6ab30;}.cls-8{font-size:100.53px;font-family:MyriadHebrew-Regular, Myriad Hebrew;}.cls-8,.cls-9{fill:#fff;}</style></defs><ellipse class="cls-1" cx="303.68" cy="422.24" rx="177.95" ry="191.14" transform="translate(-145.62 -195.31) rotate(-5.63)"/><path class="cls-2" d="M465.86,317.31c-6.87-12.55-35.22-60.45-93.26-80.91-43.78-15.43-83.11-7.68-100.11-4.11-28.13,5.9-52.28,17.29-51.59,19.64,1,3.62,57.57-24.76,118.61-12.44,43.4,8.76,85.65,37.34,109.47,74.46,58.64,91.38-3.6,220.19-.09,221S520,416.19,465.86,317.31Z" transform="translate(-105.64 -227.16)"/><path class="cls-3" d="M400.28,755.11c.94-.89,1.87-1.79,2.79-2.69" transform="translate(-105.64 -227.16)"/><path class="cls-4" d="M297.64,439.06V588c50.6-2.17,95.36-24.39,124.67-58" transform="translate(-105.64 -227.16)"/><path class="cls-5" d="M298.58,265.76a11.16,11.16,0,0,0-12.46-11.06c-75.92,8.42-135.2,79.63-135.2,166.25,0,91.29,65.87,165.47,147.66,167.05Z" transform="translate(-105.64 -227.16)"/><circle class="cls-6" cx="66.09" cy="69.16" r="66.09"/><circle class="cls-7" cx="73.76" cy="69.16" r="55.56"/><path class="cls-7" d="M455.25,411.13c-11-81.47-61.66-145.56-125.65-158.51-11.07-2.24-21.25,7.46-21.25,20.39V435H437.43C448.45,435,456.94,423.66,455.25,411.13Z" transform="translate(-105.64 -227.16)"/><path class="cls-6" d="M464.26,412.45c-11.3-77-63.48-137.5-129.35-149.74C323.51,260.59,313,269.76,313,282V435H445.92C457.26,435,466,424.28,464.26,412.45Z" transform="translate(-105.64 -227.16)"/><text class="cls-8" transform="translate(39.81 102.58)">$</text><path class="cls-9" d="M229.69,352.46,280,402.74v10.79h-7.15V445c.37.37.73.75,1.08,1.13a7.36,7.36,0,0,1,.92,1.27,10.45,10.45,0,0,1,3.77,3.9,10.61,10.61,0,0,1,1.38,5.3v10.8H179.4v-10.8a10.61,10.61,0,0,1,1.38-5.3,10.45,10.45,0,0,1,3.77-3.9,10.9,10.9,0,0,1,2-2.4V413.53h-7.2V402.74ZM186.6,406.34h7.15l35.94-35.94,35.93,35.94h7.2l-43.13-43.09Zm17.94,53.88h21.55v-1.85a17.28,17.28,0,0,1,.1-1.9,4.8,4.8,0,0,1,.47-1.7,3.07,3.07,0,0,1,1.1-1.22,3.45,3.45,0,0,1,1.93-.48h35.93V409.94h-1.5L229.69,375.5l-34.44,34.44h-1.5v43.13l2.82,0c.92,0,1.86,0,2.83,0a9.53,9.53,0,0,1,2.82.33,3.31,3.31,0,0,1,1.55.92,2.78,2.78,0,0,1,.65,1.5,16.1,16.1,0,0,1,.12,2.1Zm3.6-46.69V399.14h14.35v14.39Zm0,43.09V427.88h14.35v28.74Zm43.09-57.48v14.39H236.88V399.14Zm0,28.74v14.39H236.88V427.88Z" transform="translate(-105.64 -227.16)"/><path class="cls-9" d="M344.67,290.25a82,82,0,0,1,21,2.74,93.51,93.51,0,0,1,19.93,7.8A99.82,99.82,0,0,1,403.49,313a95.22,95.22,0,0,1,14.86,15.9,12.88,12.88,0,0,1,1.82,3.39,11.3,11.3,0,0,1,.65,3.86,11.87,11.87,0,0,1-1.94,6.69,10.73,10.73,0,0,1-5.27,4.23v10.23a9.79,9.79,0,0,1-.56,3.28,9.45,9.45,0,0,1-1.56,2.82,10,10,0,0,1-2.37,2.13,8.41,8.41,0,0,1-2.93,1.2,9.12,9.12,0,0,1-1.14,3.12,9.79,9.79,0,0,1-2,2.45,9.3,9.3,0,0,1-2.68,1.63,8.4,8.4,0,0,1-3.1.58,8.54,8.54,0,0,1-4.82-1.46,9.38,9.38,0,0,1-3.36-4l-33.61,35.54a9.71,9.71,0,0,1-1.06,3.25,10.49,10.49,0,0,1-2,2.61,8.63,8.63,0,0,1-2.73,1.73,8.51,8.51,0,0,1-3.2.61,8.6,8.6,0,0,1-3.56-.74,9.33,9.33,0,0,1-2.88-2.06,9.76,9.76,0,0,1-1.94-3,9.91,9.91,0,0,1-.71-3.76V310.28a11.22,11.22,0,0,1-2.67-3.86,11.87,11.87,0,0,1-1-4.67,11.63,11.63,0,0,1,.86-4.47,11.77,11.77,0,0,1,2.34-3.65,11.32,11.32,0,0,1,3.46-2.48A10.08,10.08,0,0,1,344.67,290.25ZM342.75,305a79.31,79.31,0,0,1,30.74,6.82,82.76,82.76,0,0,1,13.72,7.81,93.69,93.69,0,0,1,12.47,10.52,52.06,52.06,0,0,1,3.78,4.24q1.77,2.21,3.69,4.23a5.36,5.36,0,0,0,1.26,1A3,3,0,0,0,410,340a3.32,3.32,0,0,0,2.55-1.12,3.85,3.85,0,0,0,1-2.72,4.51,4.51,0,0,0-.71-2.18,22.05,22.05,0,0,0-1.66-2.45c-.64-.82-1.31-1.59-2-2.32s-1.23-1.32-1.64-1.78q-1.92-2.13-3.88-4.05c-1.32-1.28-2.7-2.53-4.14-3.73A114.93,114.93,0,0,0,387,310.52a86.65,86.65,0,0,0-13.17-6.82,77.2,77.2,0,0,0-14.06-4.29,75.41,75.41,0,0,0-15.14-1.49A3.38,3.38,0,0,0,342.1,299a3.77,3.77,0,0,0-1.06,2.71,3.5,3.5,0,0,0,.43,1.9A5.86,5.86,0,0,0,342.75,305Zm61.77,54.19a1.71,1.71,0,0,0,1.29-.56,1.9,1.9,0,0,0,.53-1.36c0-2.23,0-4.45,0-6.63s0-4.4,0-6.63v-.56a1.47,1.47,0,0,1,.1-.56,10.48,10.48,0,0,1-2.12-1.84c-.81-.87-1.64-1.81-2.5-2.82s-1.7-2-2.52-3-1.54-1.79-2.14-2.39A116.69,116.69,0,0,0,385.45,323,76.12,76.12,0,0,0,373,315.66,67.82,67.82,0,0,0,359.48,311a65.84,65.84,0,0,0-14.81-1.63V403.2a1.92,1.92,0,0,0,.53,1.36,1.71,1.71,0,0,0,1.29.56c.84,0,1.35-.29,1.54-.85a6.17,6.17,0,0,0,.27-1.87v-1.12l47.14-49.76V365a1.86,1.86,0,0,0,.56,1.33,1.66,1.66,0,0,0,2.52,0,1.89,1.89,0,0,0,.55-1.33V353.44a1.9,1.9,0,0,1,.53-1.36,1.74,1.74,0,0,1,1.29-.56,1.44,1.44,0,0,1,1.54.93,6.12,6.12,0,0,1,.33,2.05q0,.48,0,.93c0,.31,0,.58,0,.83a8.84,8.84,0,0,0,.05,1,3.34,3.34,0,0,0,.22.93,1.52,1.52,0,0,0,.56.69A1.65,1.65,0,0,0,404.52,359.19Zm-47.18-26.8a8.32,8.32,0,0,1-3.51-.75,9.14,9.14,0,0,1-2.88-2.05,9.67,9.67,0,0,1-1.94-3.06,10.15,10.15,0,0,1,0-7.46A9.67,9.67,0,0,1,351,316a9.14,9.14,0,0,1,2.88-2.05,8.32,8.32,0,0,1,3.51-.75,8.51,8.51,0,0,1,3.53.75,8.89,8.89,0,0,1,2.9,2.05,9.5,9.5,0,0,1,1.94,3.06,10.23,10.23,0,0,1,0,7.49,9.59,9.59,0,0,1-1.94,3,8.89,8.89,0,0,1-2.9,2.05A8.51,8.51,0,0,1,357.34,332.39Zm0,26.8a8.51,8.51,0,0,1,3.53.75,8.89,8.89,0,0,1,2.9,2.05,9.8,9.8,0,0,1,2.65,6.74,9.63,9.63,0,0,1-.71,3.75,9.52,9.52,0,0,1-1.94,3,8.89,8.89,0,0,1-2.9,2.05,8.51,8.51,0,0,1-3.53.75,8.32,8.32,0,0,1-3.51-.75,9.14,9.14,0,0,1-2.88-2.05,9.67,9.67,0,0,1-1.94-3.06,9.94,9.94,0,0,1-.71-3.73A9.8,9.8,0,0,1,351,362a9.14,9.14,0,0,1,2.88-2.05A8.32,8.32,0,0,1,357.34,359.19Zm18.17-23a8.45,8.45,0,0,1,3.5.74,9.18,9.18,0,0,1,2.88,2,9.93,9.93,0,0,1,1.94,3,9.93,9.93,0,0,1,0,7.3,10.1,10.1,0,0,1-1.87,3.06,9.36,9.36,0,0,1-2.78,2.14,7.45,7.45,0,0,1-3.4.79,9.31,9.31,0,0,1-6.64-2.71,9.35,9.35,0,0,1-2-3,10,10,0,0,1-.73-3.84,9.75,9.75,0,0,1,.71-3.7,9.93,9.93,0,0,1,1.94-3,9.15,9.15,0,0,1,2.9-2A8.67,8.67,0,0,1,375.51,336.23Z" transform="translate(-105.64 -227.16)"/></svg>